<?xml version="1.0" encoding="UTF-8"?>
<svg id="Camada_1" data-name="Camada 1" xmlns="http://www.w3.org/2000/svg" viewBox="0 0 1080 557">
  <defs>
    <style>
      .cls-1 {
        fill: #fff;
      }
    </style>
  </defs>
  <path class="cls-1" d="M534.72,274.18h33.14v-74.71c0-22.38,11.34-44.77,31.69-44.77,2.03,0,12.12-.01,12.99-.01v-31.98c-1.74-.29-7.18-.57-10.09-.57-19.48,0-31.98,26.45-34.88,55.81v-52.33h-34.01c.58,13.08,1.16,27.91,1.16,45.06v103.49Z"/>
  <path class="cls-1" d="M702.99,237.55v36.63h34.3c-1.45-9.59-2.03-22.09-2.03-34.59v-59.3c0-29.07-10.47-58.43-56.4-58.43-32.85,0-47.96,16.28-47.96,37.21,0,11.63,5.81,22.97,15.99,29.07-18.31,9.01-29.07,23.84-29.07,45.35,0,23.55,13.95,44.19,42.73,44.19,25,0,38.66-19.19,42.44-40.12ZM677.12,146.28c20.93,0,25.29,15.12,25.29,26.45v5.52c-14.83-.29-28.2,1.16-39.24,4.36-4.94-4.36-8.14-10.17-8.14-18.02.29-11.63,8.72-18.31,22.09-18.31ZM650.38,230c0-25.87,28.2-29.94,52.62-29.94v19.77c0,15.7-12.21,34.01-30.81,34.01-11.92,0-21.8-7.56-21.8-23.84Z"/>
  <path class="cls-1" d="M446.12,274.18h9.08v-27.98h-3.7c-4.58,0-9.16-.3-13.67-1.09-11.97-2.12-22.22-6.97-31.52-15.88,23.54-33.09,36.64-76.68,35.49-120.93-1.3-49.95-20.95-79-50.28-78.31-30.78.73-50.28,33.06-48.73,92.39,1.13,43.24,11.7,80.9,29.26,107.99-8.76,9.26-18.44,16.87-29.03,23.16l10.48,22.9c12.9-6.68,24.59-15.34,35.06-25.99,16.1,15.72,35.72,23.73,57.57,23.73ZM368.28,119.44c-1.08-41.23,8.57-61.25,23.38-61.6,14.23-.34,23.72,18.22,24.57,50.74.94,35.87-8.91,70.65-26.48,98.57-12.79-22.51-20.56-53.18-21.47-87.71Z"/>
  <rect class="cls-1" x="478.54" y="125.64" width="32.85" height="148.55"/>
  <circle class="cls-1" cx="494.96" cy="92.27" r="17.74"/>
  <path class="cls-1" d="M298.96,311.02c-25.58,0-38.95,23.84-42.73,47.96v-44.48h-34.3c.58,10.17,1.16,26.45,1.16,40.7v107.85h33.14v-84.59c0-19.48,9.59-40.12,29.07-40.12s25.58,16.28,25.58,36.63v88.08h32.85v-92.44c0-43.6-21.22-59.59-44.77-59.59Z"/>
  <path class="cls-1" d="M482.73,369.16c0-29.07-10.47-58.43-56.4-58.43-32.85,0-47.96,16.28-47.96,37.21,0,11.63,5.81,22.97,15.99,29.07-18.31,9.01-29.07,23.84-29.07,45.35,0,23.55,13.95,44.19,42.73,44.19,25,0,38.66-19.19,42.44-40.12v36.63h34.3c-1.45-9.59-2.03-22.09-2.03-34.59v-59.3ZM424.6,335.15c20.93,0,25.29,15.12,25.29,26.45v5.52c-14.83-.29-28.2,1.16-39.24,4.36-4.94-4.36-8.14-10.17-8.14-18.02.29-11.63,8.72-18.31,22.09-18.31ZM450.47,408.7c0,15.7-12.21,34.01-30.81,34.01-11.92,0-21.8-7.56-21.8-23.84,0-25.87,28.2-29.94,52.62-29.94v19.77Z"/>
  <path class="cls-1" d="M582.04,311.02c-25.58,0-38.95,23.84-42.73,47.96v-44.48h-34.3c.58,10.17,1.16,26.45,1.16,40.7v107.85h33.14v-84.59c0-19.48,9.59-40.12,29.07-40.12s25.58,16.28,25.58,36.63v88.08h32.85v-92.44c0-43.6-21.22-59.59-44.77-59.59Z"/>
  <path class="cls-1" d="M911.05,369.16c0-29.07-10.47-58.43-56.4-58.43-32.85,0-47.96,16.28-47.96,37.21,0,11.63,5.81,22.97,15.99,29.07-18.31,9.01-29.07,23.84-29.07,45.35,0,23.55,13.95,44.19,42.73,44.19,25,0,38.66-19.19,42.44-40.12v36.63h34.3c-1.45-9.59-2.03-22.09-2.03-34.59v-59.3ZM852.91,335.15c20.93,0,25.29,15.12,25.29,26.45v5.52c-14.83-.29-28.2,1.16-39.24,4.36-4.94-4.36-8.14-10.17-8.14-18.02.29-11.63,8.72-18.31,22.09-18.31ZM878.79,408.7c0,15.7-12.21,34.01-30.81,34.01-11.92,0-21.8-7.56-21.8-23.84,0-25.87,28.2-29.94,52.62-29.94v19.77Z"/>
  <path class="cls-1" d="M126.12,338.98l5.83-24.42h-38.65v-11.33c0-18.31,5.52-33.42,23.54-33.42,6.68,0,11.33,1.16,15.11,2.32v-26.44c-5.23-1.45-11.62-2.62-19.18-2.62-36.03,0-52.01,27.9-52.01,61.31v10.17h-19.76v24.41h19.76v113.9c0,31.09,16.56,52.01,41.84,52.01,30.22,0,42.71-27.6,42.71-56.37,0-40.97-21.21-81.65-46.2-109.55h27ZM120.04,442.12c0,12.78-1.45,31.96-13.95,31.96-10.46,0-12.49-13.37-12.49-26.44v-95.02c14.82,24.99,26.44,60.73,26.44,89.5Z"/>
  <rect class="cls-1" x="166.89" y="314.51" width="32.85" height="148.55"/>
  <circle class="cls-1" cx="183.31" cy="281.14" r="17.74" transform="translate(-146.57 342.91) rotate(-67.5)"/>
  <path class="cls-1" d="M1039,421.78c0-25-17.73-37.5-45.06-46.8-17.15-6.69-28.2-12.21-28.2-22.97,0-9.01,5.81-16.28,19.19-16.28s21.47,8.1,22.37,21.99l28.55-6.82c-3.16-23.78-20.25-37.18-43.26-39.72v-16.91h-14.46v16.71c-26.2,2.09-43.5,17.55-43.5,41.03s15.12,35.47,40.99,44.77c18.6,7.27,31.98,13.66,31.98,26.74,0,11.34-8.43,18.61-21.22,18.61-15.41,0-24.71-9.01-25.87-24.13l-28.78,6.87c3.42,24.41,21.37,38.73,46.4,41.26v16.86h14.46v-16.7c26.36-2.04,46.4-17.27,46.4-44.52Z"/>
  <path class="cls-1" d="M714.71,336.31c16.12,0,25.31,13.1,28.53,31.58l30.58-7.3c-6.57-31.68-27.38-49.86-58.82-49.86-41.28,0-65.41,31.1-65.41,78.2,0,43.6,21.8,72.09,54.94,77.04l-10.17,20.93c12.79,1.74,25,5.81,24.71,13.95-.29,4.94-6.69,7.85-15.12,7.85-5.23,0-11.63-1.16-17.73-3.78l-.58,17.44c6.4,2.91,14.53,4.65,22.38,4.65,16.28,0,31.98-6.98,31.98-25.29,0-13.66-11.92-21.51-27.91-24.42l5.23-10.76c30.9-1.04,49.73-20.41,56.3-49.82l-30.35-7.25c-2.95,18.66-11.9,31.48-28.28,31.48-21.22,0-31.69-24.13-31.69-52.33,0-26.45,9.59-52.33,31.4-52.33Z"/>
</svg>